<svg width="18" height="18" viewBox="0 0 18 18" fill="none" xmlns="http://www.w3.org/2000/svg">
<path d="M16.5 9V6.75C16.5 3 15 1.5 11.25 1.5H6.75C3 1.5 1.5 3 1.5 6.75V11.25C1.5 15 3 16.5 6.75 16.5H9" stroke="#292D32" stroke-width="1.5" stroke-linecap="round" stroke-linejoin="round"/>
<path opacity="0.4" d="M15.72 13.38L14.4975 13.7925C14.16 13.905 13.89 14.1675 13.7775 14.5125L13.365 15.735C13.0125 16.7925 11.5275 16.77 11.1975 15.7125L9.81001 11.25C9.54001 10.365 10.3575 9.53999 11.235 9.81749L15.705 11.205C16.755 11.535 16.77 13.0275 15.72 13.38Z" stroke="#292D32" stroke-width="1.5" stroke-linecap="round" stroke-linejoin="round"/>
</svg>
