<svg width="26" height="29" viewBox="0 0 26 29" fill="none" xmlns="http://www.w3.org/2000/svg">
<g filter="url(#filter0_b_10905_5667)">
<circle cx="13" cy="13" r="13" fill="url(#paint0_linear_10905_5667)"/>
</g>
<g filter="url(#filter1_d_10905_5667)">
<path d="M16.18 17.6533H9.82001C9.54001 17.6533 9.28667 17.4733 9.19334 17.2133L6.42001 9.44665C6.20001 8.82665 6.90667 8.29999 7.43334 8.67999L10.1 10.5867C10.4533 10.84 10.96 10.6867 11.1133 10.28L12.3733 6.91999C12.5867 6.33999 13.4067 6.33999 13.62 6.91999L14.88 10.28C15.0333 10.6933 15.5333 10.84 15.8933 10.5867L18.56 8.67999C19.0933 8.29999 19.7933 8.83332 19.5733 9.44665L16.8 17.2133C16.7133 17.4733 16.46 17.6533 16.18 17.6533Z" fill="white"/>
<path d="M16.3333 19.6667H9.66667C9.39334 19.6667 9.16667 19.44 9.16667 19.1667C9.16667 18.8933 9.39334 18.6667 9.66667 18.6667H16.3333C16.6067 18.6667 16.8333 18.8933 16.8333 19.1667C16.8333 19.44 16.6067 19.6667 16.3333 19.6667Z" fill="#ECECEC"/>
<path d="M14.6667 14.8333H11.3333C11.06 14.8333 10.8333 14.6067 10.8333 14.3333C10.8333 14.06 11.06 13.8333 11.3333 13.8333H14.6667C14.94 13.8333 15.1667 14.06 15.1667 14.3333C15.1667 14.6067 14.94 14.8333 14.6667 14.8333Z" fill="#ECECEC"/>
</g>
<defs>
<filter id="filter0_b_10905_5667" x="-28.2" y="-28.2" width="82.4" height="82.4" filterUnits="userSpaceOnUse" color-interpolation-filters="sRGB">
<feFlood flood-opacity="0" result="BackgroundImageFix"/>
<feGaussianBlur in="BackgroundImageFix" stdDeviation="14.1"/>
<feComposite in2="SourceAlpha" operator="in" result="effect1_backgroundBlur_10905_5667"/>
<feBlend mode="normal" in="SourceGraphic" in2="effect1_backgroundBlur_10905_5667" result="shape"/>
</filter>
<filter id="filter1_d_10905_5667" x="0.5" y="4.5" width="25" height="25" filterUnits="userSpaceOnUse" color-interpolation-filters="sRGB">
<feFlood flood-opacity="0" result="BackgroundImageFix"/>
<feColorMatrix in="SourceAlpha" type="matrix" values="0 0 0 0 0 0 0 0 0 0 0 0 0 0 0 0 0 0 127 0" result="hardAlpha"/>
<feOffset dy="4"/>
<feGaussianBlur stdDeviation="2.25"/>
<feComposite in2="hardAlpha" operator="out"/>
<feColorMatrix type="matrix" values="0 0 0 0 1 0 0 0 0 0.65 0 0 0 0 0 0 0 0 0.22 0"/>
<feBlend mode="normal" in2="BackgroundImageFix" result="effect1_dropShadow_10905_5667"/>
<feBlend mode="normal" in="SourceGraphic" in2="effect1_dropShadow_10905_5667" result="shape"/>
</filter>
<linearGradient id="paint0_linear_10905_5667" x1="22.6873" y1="2.97917" x2="18.2815" y2="23.8541" gradientUnits="userSpaceOnUse">
<stop stop-color="#FFBC40"/>
<stop offset="1" stop-color="#FA7D2A"/>
</linearGradient>
</defs>
</svg>
