<svg xmlns="http://www.w3.org/2000/svg" xmlns:xlink="http://www.w3.org/1999/xlink" width="512" zoomAndPan="magnify" viewBox="0 0 384 383.999986" height="512" preserveAspectRatio="xMidYMid meet" version="1.0"><defs><clipPath id="7e7938e6d8"><path d="M 58.832031 61 L 325.082031 61 L 325.082031 322.746094 L 58.832031 322.746094 Z M 58.832031 61 " clip-rule="nonzero"/></clipPath></defs><g clip-path="url(#7e7938e6d8)"><path fill="#ff3131" d="M 192 323.164062 C 186.894531 323.164062 181.835938 321.253906 177.839844 317.480469 L 150.40625 291.203125 L 116.761719 291.203125 C 84.84375 291.203125 58.878906 265.238281 58.878906 233.320312 L 58.878906 118.929688 C 58.832031 87.015625 84.800781 61.046875 116.714844 61.046875 L 267.238281 61.046875 C 299.152344 61.046875 325.121094 87.015625 325.121094 118.929688 L 325.121094 233.230469 C 325.121094 265.148438 299.152344 291.113281 267.238281 291.113281 L 233.546875 291.113281 L 206.113281 317.394531 C 202.164062 321.210938 197.058594 323.074219 191.953125 323.074219 Z M 116.714844 83.242188 C 97.007812 83.242188 81.027344 99.265625 81.027344 118.929688 L 81.027344 233.230469 C 81.027344 252.941406 97.050781 268.921875 116.714844 268.921875 L 151.074219 268.921875 C 156.355469 268.921875 161.414062 270.917969 165.234375 274.601562 L 191.953125 300.214844 L 218.675781 274.601562 C 222.496094 270.917969 227.554688 268.921875 232.835938 268.921875 L 267.195312 268.921875 C 286.902344 268.921875 302.882812 252.894531 302.882812 233.230469 L 302.882812 118.929688 C 302.882812 99.222656 286.859375 83.242188 267.195312 83.242188 Z M 207.535156 137.128906 C 208.601562 114.671875 175.398438 114.671875 176.464844 137.128906 C 176.464844 137.128906 181.835938 195.988281 181.835938 195.988281 C 183.078125 208.195312 200.875 208.285156 202.207031 195.988281 L 207.578125 137.128906 Z M 207.402344 231.632812 C 207.402344 223.113281 200.523438 216.230469 192 216.230469 C 183.476562 216.230469 176.597656 223.113281 176.597656 231.632812 C 176.597656 240.15625 183.476562 247.039062 192 247.039062 C 200.523438 247.039062 207.402344 240.15625 207.402344 231.632812 Z M 207.402344 231.632812 " fill-opacity="1" fill-rule="nonzero"/></g></svg>