<svg width="36" height="36" viewBox="0 0 36 36" fill="none" xmlns="http://www.w3.org/2000/svg">
<path d="M21.0813 2.7225L24.2537 9.0675C24.6812 9.945 25.8287 10.7775 26.7962 10.9575L32.5338 11.9025C36.2013 12.51 37.0563 15.165 34.4238 17.82L29.9462 22.2975C29.2037 23.04 28.7763 24.5025 29.0238 25.56L30.3062 31.095C31.3187 35.46 28.9788 37.17 25.1313 34.875L19.7537 31.68C18.7862 31.095 17.1663 31.095 16.1987 31.68L10.8212 34.875C6.97372 37.1475 4.63374 35.46 5.64624 31.095L6.92876 25.56C7.17626 24.525 6.74875 23.0625 6.00625 22.2975L1.52877 17.82C-1.10373 15.1875 -0.248735 12.5325 3.41877 11.9025L9.15624 10.9575C10.1237 10.8 11.2712 9.945 11.6987 9.0675L14.8713 2.7225C16.5588 -0.72 19.3488 -0.72 21.0813 2.7225Z" fill="url(#paint0_linear_10905_8765)"/>
<defs>
<linearGradient id="paint0_linear_10905_8765" x1="31.3717" y1="4.23755" x2="25.3435" y2="32.958" gradientUnits="userSpaceOnUse">
<stop stop-color="#FFBC40"/>
<stop offset="1" stop-color="#FA7D2A"/>
</linearGradient>
</defs>
</svg>
