<svg xmlns="http://www.w3.org/2000/svg" xmlns:xlink="http://www.w3.org/1999/xlink" width="512" zoomAndPan="magnify" viewBox="0 0 384 383.999986" height="512" preserveAspectRatio="xMidYMid meet" version="1.0"><defs><clipPath id="86d8fb88d8"><path d="M 51.125 58.167969 L 319 58.167969 L 319 325.917969 L 51.125 325.917969 Z M 51.125 58.167969 " clip-rule="nonzero"/></clipPath></defs><g clip-path="url(#86d8fb88d8)"><path fill="#00bb38" d="M 184.734375 325.609375 C 111.066406 325.609375 51.121094 265.667969 51.121094 191.964844 C 51.121094 118.265625 111.066406 58.289062 184.734375 58.289062 C 208.878906 58.289062 232.488281 64.742188 253.023438 76.988281 C 257.34375 79.5625 258.761719 85.15625 256.1875 89.445312 C 253.585938 93.796875 247.964844 95.097656 243.734375 92.613281 C 226.007812 82.050781 205.625 76.457031 184.734375 76.457031 C 121.09375 76.457031 69.289062 128.265625 69.289062 191.964844 C 69.289062 255.605469 121.097656 307.382812 184.734375 307.382812 C 248.40625 307.382812 300.183594 255.605469 300.183594 191.964844 C 300.183594 186.933594 304.269531 182.882812 309.296875 182.882812 C 314.328125 182.882812 318.410156 186.9375 318.410156 191.964844 C 318.410156 265.667969 258.4375 325.609375 184.734375 325.609375 Z M 184.734375 325.609375 " fill-opacity="1" fill-rule="nonzero"/></g><path fill="#00bb38" d="M 173.9375 266.554688 C 173.523438 266.554688 173.109375 266.554688 172.695312 266.496094 C 166.1875 266.140625 160.238281 262.769531 156.539062 257.382812 L 112.011719 192.558594 C 105.414062 182.941406 107.867188 169.804688 117.457031 163.207031 C 127.160156 156.578125 140.179688 159.0625 146.804688 168.652344 L 175.949219 211.136719 L 293.441406 77.019531 C 301.132812 68.230469 314.449219 67.402344 323.207031 75.066406 C 331.964844 82.730469 332.851562 96.074219 325.160156 104.832031 L 189.796875 259.335938 C 185.800781 263.953125 180 266.554688 173.9375 266.554688 Z M 173.9375 266.554688 " fill-opacity="1" fill-rule="nonzero"/></svg>