<svg width="30" height="30" viewBox="0 0 30 30" fill="none" xmlns="http://www.w3.org/2000/svg">
<path d="M21.6667 1.66667H8.33334C4.65144 1.66667 1.66667 4.65144 1.66667 8.33334V21.6667C1.66667 25.3486 4.65144 28.3333 8.33334 28.3333H21.6667C25.3486 28.3333 28.3333 25.3486 28.3333 21.6667V8.33334C28.3333 4.65144 25.3486 1.66667 21.6667 1.66667Z" fill="black"/>
<path d="M20.6017 15.3333C19.1291 14.5911 17.4507 14.3626 15.8333 14.6842C16.2847 13.2046 17.2294 11.9243 18.51 11.0567C19.8383 10.4093 21.3438 10.2206 22.7908 10.52C22.4738 11.408 21.9974 12.2306 21.385 12.9475C21.3487 12.9887 21.3209 13.0365 21.3031 13.0884C21.2854 13.1403 21.278 13.1952 21.2814 13.25C21.2849 13.3047 21.2991 13.3583 21.3232 13.4075C21.3473 13.4568 21.3809 13.5008 21.4221 13.5371C21.4632 13.5734 21.5111 13.6012 21.563 13.619C21.6149 13.6367 21.6698 13.6441 21.7245 13.6407C21.7793 13.6372 21.8328 13.623 21.8821 13.5989C21.9314 13.5748 21.9754 13.5412 22.0117 13.5C22.8065 12.5724 23.3946 11.4861 23.7367 10.3133C23.7642 10.2073 23.7489 10.0946 23.694 9.99981C23.6391 9.90497 23.549 9.83559 23.4433 9.80667C21.6536 9.34141 19.7567 9.52871 18.0925 10.335C16.7123 11.2309 15.6731 12.5644 15.1417 14.1217C14.0813 12.997 13.4404 11.5416 13.3267 10C13.4279 8.53001 14.0168 7.13584 15 6.03834C15.613 6.75489 16.0903 7.57723 16.4083 8.46501C16.4434 8.57021 16.5187 8.65719 16.6179 8.7068C16.7171 8.75642 16.8319 8.76462 16.9371 8.72959C17.0423 8.69456 17.1293 8.61917 17.1789 8.52001C17.2285 8.42085 17.2367 8.30604 17.2017 8.20084C16.7919 7.04911 16.1413 5.99797 15.2933 5.11751C15.2154 5.04116 15.1107 4.9984 15.0017 4.9984C14.8926 4.9984 14.7879 5.04116 14.71 5.11751C13.409 6.42653 12.6212 8.15912 12.49 10C12.5805 11.6419 13.221 13.2056 14.3083 14.4392C12.7978 14.7875 11.2136 14.6112 9.81666 13.9392C8.59098 13.1194 7.67348 11.9145 7.20916 10.515C8.13951 10.345 9.09297 10.345 10.0233 10.515C10.1316 10.5371 10.2443 10.5153 10.3365 10.4543C10.4287 10.3934 10.4929 10.2983 10.515 10.19C10.5371 10.0817 10.5153 9.96907 10.4543 9.87686C10.3934 9.78466 10.2983 9.72044 10.19 9.69834C8.98534 9.47585 7.74715 9.51192 6.55749 9.80417C6.45164 9.83291 6.3614 9.90222 6.30632 9.99707C6.25125 10.0919 6.2358 10.2047 6.26333 10.3108C6.75352 12.0911 7.86583 13.6366 9.39833 14.6667C10.3918 15.2042 11.5082 15.4739 12.6375 15.4492C13.1501 15.4483 13.6617 15.4037 14.1667 15.3158C13.7151 16.7953 12.7705 18.0755 11.49 18.9433C10.162 19.5918 8.65614 19.7806 7.20916 19.48C7.52621 18.5921 8.00262 17.7694 8.61499 17.0525C8.65129 17.0115 8.67915 16.9638 8.69699 16.9121C8.71483 16.8603 8.7223 16.8056 8.71897 16.7509C8.71565 16.6963 8.70159 16.6428 8.6776 16.5936C8.65361 16.5444 8.62016 16.5004 8.57916 16.4642C8.49571 16.3914 8.38695 16.3543 8.2764 16.361C8.16585 16.3677 8.06237 16.4176 7.98833 16.5C7.19345 17.4276 6.60538 18.514 6.26333 19.6867C6.23577 19.7927 6.25111 19.9054 6.30601 20.0002C6.36092 20.095 6.45097 20.1644 6.55666 20.1933C7.24788 20.3632 7.9574 20.4471 8.66916 20.4433C9.79825 20.4683 10.9144 20.1986 11.9075 19.6608C13.2877 18.765 14.3268 17.4314 14.8583 15.8742C15.9196 16.9999 16.5605 18.457 16.6733 20C16.572 21.47 15.9832 22.8642 15 23.9617C14.3869 23.2451 13.9097 22.4228 13.5917 21.535C13.5566 21.4298 13.4812 21.3428 13.3821 21.2932C13.2829 21.2436 13.1681 21.2354 13.0629 21.2704C12.9577 21.3055 12.8707 21.3808 12.8211 21.48C12.7715 21.5792 12.7633 21.694 12.7983 21.7992C13.2081 22.9509 13.8586 24.002 14.7067 24.8825C14.7845 24.9589 14.8893 25.0016 14.9983 25.0016C15.1074 25.0016 15.2121 24.9589 15.29 24.8825C16.5912 23.5736 17.379 21.841 17.51 20C17.4193 18.3579 16.7788 16.794 15.6917 15.56C17.2022 15.2118 18.7863 15.3881 20.1833 16.06C21.409 16.8798 22.3265 18.0846 22.7908 19.4842C21.8605 19.6542 20.907 19.6542 19.9767 19.4842C19.923 19.4732 19.8678 19.473 19.8141 19.4834C19.7603 19.4938 19.7092 19.5147 19.6635 19.5448C19.6179 19.575 19.5786 19.6139 19.548 19.6593C19.5173 19.7046 19.4959 19.7556 19.485 19.8092C19.4741 19.8628 19.4738 19.918 19.4842 19.9718C19.4946 20.0255 19.5155 20.0767 19.5457 20.1223C19.5758 20.168 19.6147 20.2072 19.6601 20.2379C19.7054 20.2685 19.7564 20.2899 19.81 20.3008C20.3116 20.4002 20.8219 20.4493 21.3333 20.4475C22.044 20.451 22.7523 20.367 23.4425 20.1975C23.5483 20.1688 23.6386 20.0995 23.6937 20.0046C23.7487 19.9098 23.7642 19.797 23.7367 19.6908C23.2468 17.91 22.1345 16.3638 20.6017 15.3333Z" fill="white"/>
</svg>
