<svg width="23" height="24" viewBox="0 0 23 24" fill="none" xmlns="http://www.w3.org/2000/svg">
<path d="M8.385 9.49H3.615C3.405 9.49 3.215 9.355 3.145 9.16L1.065 3.335C0.899998 2.87 1.43 2.475 1.825 2.76L3.825 4.19C4.09 4.38 4.47 4.265 4.585 3.96L5.53 1.44C5.69 1.005 6.305 1.005 6.465 1.44L7.41 3.96C7.525 4.27 7.9 4.38 8.17 4.19L10.17 2.76C10.57 2.475 11.095 2.875 10.93 3.335L8.85 9.16C8.785 9.355 8.595 9.49 8.385 9.49Z" fill="white"/>
<path d="M8.5 11H3.5C3.295 11 3.125 10.83 3.125 10.625C3.125 10.42 3.295 10.25 3.5 10.25H8.5C8.705 10.25 8.875 10.42 8.875 10.625C8.875 10.83 8.705 11 8.5 11Z" fill="white"/>
<path d="M7.25 7.375H4.75C4.545 7.375 4.375 7.205 4.375 7C4.375 6.795 4.545 6.625 4.75 6.625H7.25C7.455 6.625 7.625 6.795 7.625 7C7.625 7.205 7.455 7.375 7.25 7.375Z" fill="#ECECEC"/>
</svg>
