<svg width="24" height="24" viewBox="0 0 24 24" fill="none" xmlns="http://www.w3.org/2000/svg">
<path d="M14 12C14 13.1 13.1 14 12 14C10.9 14 10 13.1 10 12C10 10.9 10.9 10 12 10C13.1 10 14 10.9 14 12ZM9.17001 7.05001C8.58001 6.46001 7.63001 6.46001 7.05001 7.05001C4.32001 9.78001 4.32001 14.22 7.05001 16.95C7.34001 17.24 7.73001 17.39 8.11001 17.39C8.49001 17.39 8.88001 17.24 9.17001 16.95C9.76001 16.36 9.76001 15.41 9.17001 14.83C7.61001 13.27 7.61001 10.73 9.17001 9.17001C9.76001 8.58001 9.76001 7.63001 9.17001 7.05001ZM16.95 7.05001C16.36 6.46001 15.41 6.46001 14.83 7.05001C14.25 7.64001 14.24 8.59001 14.83 9.17001C15.59 9.93001 16 10.93 16 12C16 13.07 15.58 14.07 14.83 14.83C14.24 15.42 14.24 16.37 14.83 16.95C15.12 17.24 15.51 17.39 15.89 17.39C16.27 17.39 16.66 17.24 16.95 16.95C18.27 15.63 19 13.87 19 12C19 10.13 18.27 8.37001 16.95 7.05001ZM5.64001 5.64001C6.23001 5.05001 6.23001 4.10001 5.64001 3.52001C5.05001 2.93001 4.10001 2.93001 3.52001 3.52001C-1.15999 8.19001 -1.15999 15.81 3.51001 20.49C3.80001 20.78 4.19001 20.93 4.57001 20.93C4.95001 20.93 5.34001 20.78 5.63001 20.49C6.22001 19.9 6.22001 18.95 5.63001 18.37C2.12001 14.86 2.12001 9.15001 5.63001 5.64001H5.64001ZM20.49 3.52001C19.9 2.93001 18.95 2.93001 18.37 3.52001C17.78 4.11001 17.78 5.06001 18.37 5.64001C21.88 9.15001 21.88 14.86 18.37 18.37C17.78 18.96 17.78 19.91 18.37 20.49C18.66 20.78 19.05 20.93 19.43 20.93C19.81 20.93 20.2 20.78 20.49 20.49C25.17 15.81 25.17 8.20001 20.49 3.52001Z" fill="white"/>
</svg>
