<svg width="24" height="24" viewBox="0 0 24 24" fill="none" xmlns="http://www.w3.org/2000/svg">
<g clip-path="url(#clip0_10596_2641)">
<path d="M12 0C9.62663 0 7.30655 0.703788 5.33316 2.02236C3.35977 3.34094 1.8217 5.21509 0.913451 7.4078C0.00519938 9.60051 -0.232441 12.0133 0.230582 14.3411C0.693605 16.6689 1.83649 18.8071 3.51472 20.4853C5.19295 22.1635 7.33115 23.3064 9.65892 23.7694C11.9867 24.2324 14.3995 23.9948 16.5922 23.0866C18.7849 22.1783 20.6591 20.6402 21.9776 18.6668C23.2962 16.6935 24 14.3734 24 12C24 8.8174 22.7357 5.76516 20.4853 3.51472C18.2348 1.26428 15.1826 0 12 0ZM16.3926 7.68789C16.6973 7.68758 16.9951 7.77765 17.2485 7.94668C17.5019 8.11572 17.6995 8.35614 17.8162 8.63751C17.9329 8.91887 17.9635 9.22854 17.9042 9.52732C17.8448 9.82609 17.6982 10.1005 17.4828 10.3159C17.2674 10.5313 16.9929 10.678 16.6942 10.7373C16.3954 10.7967 16.0857 10.7661 15.8044 10.6494C15.523 10.5326 15.2826 10.3351 15.1135 10.0817C14.9445 9.82826 14.8544 9.5304 14.8547 9.22579C14.8547 8.81791 15.0168 8.42675 15.3052 8.13833C15.5936 7.84992 15.9848 7.68789 16.3926 7.68789ZM7.60737 7.68789C7.91199 7.68758 8.20985 7.77765 8.46325 7.94668C8.71666 8.11572 8.91422 8.35614 9.03094 8.63751C9.14765 8.91887 9.17827 9.22854 9.11892 9.52732C9.05957 9.82609 8.91292 10.1005 8.69753 10.3159C8.48213 10.5313 8.20768 10.678 7.9089 10.7373C7.61013 10.7967 7.30046 10.7661 7.01909 10.6494C6.73773 10.5326 6.49731 10.3351 6.32827 10.0817C6.15923 9.82826 6.06917 9.5304 6.06948 9.22579C6.0699 8.81804 6.23206 8.42712 6.52038 8.1388C6.8087 7.85048 7.19963 7.68831 7.60737 7.68789ZM18.7579 15.06C18.2542 17.9353 15.42 19.9295 12 19.9295C8.58001 19.9295 5.74737 17.9353 5.24369 15.06C5.23828 15.0308 5.23511 15.0013 5.23422 14.9716C5.23422 14.5563 5.73948 14.2879 6.18158 14.4395C7.88685 15.0284 9.87632 15.3284 12.0016 15.3284C14.1268 15.3284 16.1163 15.0284 17.8216 14.4395C18.2621 14.2816 18.769 14.5547 18.769 14.9716C18.7676 15.0013 18.7639 15.0309 18.7579 15.06Z" fill="white"/>
</g>
<defs>
<clipPath id="clip0_10596_2641">
<rect width="24" height="24" fill="white"/>
</clipPath>
</defs>
</svg>
