<svg width="25" height="25" viewBox="0 0 25 25" fill="none" xmlns="http://www.w3.org/2000/svg">
<path d="M5.8999 2.4C5.8999 1.84772 5.45219 1.4 4.8999 1.4C4.34762 1.4 3.8999 1.84772 3.8999 2.4V3.9H2.3999C1.84762 3.9 1.3999 4.34772 1.3999 4.9C1.3999 5.45229 1.84762 5.9 2.3999 5.9H3.8999V7.4C3.8999 7.95229 4.34762 8.4 4.8999 8.4C5.45219 8.4 5.8999 7.95229 5.8999 7.4V5.9H7.3999C7.95219 5.9 8.3999 5.45229 8.3999 4.9C8.3999 4.34772 7.95219 3.9 7.3999 3.9H5.8999V2.4Z" fill="url(#paint0_linear_10898_5161)"/>
<path d="M5.8999 17.4C5.8999 16.8477 5.45219 16.4 4.8999 16.4C4.34762 16.4 3.8999 16.8477 3.8999 17.4V18.9H2.3999C1.84762 18.9 1.3999 19.3477 1.3999 19.9C1.3999 20.4523 1.84762 20.9 2.3999 20.9H3.8999V22.4C3.8999 22.9523 4.34762 23.4 4.8999 23.4C5.45219 23.4 5.8999 22.9523 5.8999 22.4V20.9H7.3999C7.95219 20.9 8.3999 20.4523 8.3999 19.9C8.3999 19.3477 7.95219 18.9 7.3999 18.9H5.8999V17.4Z" fill="url(#paint1_linear_10898_5161)"/>
<path d="M14.3332 3.04102C14.1847 2.65483 13.8137 2.4 13.3999 2.4C12.9861 2.4 12.6151 2.65483 12.4666 3.04102L10.7324 7.54989C10.432 8.33093 10.3376 8.556 10.2085 8.73759C10.0789 8.9198 9.9197 9.079 9.73749 9.20856C9.5559 9.33768 9.33083 9.43208 8.54978 9.73248L4.04092 11.4667C3.65473 11.6152 3.3999 11.9862 3.3999 12.4C3.3999 12.8138 3.65473 13.1848 4.04092 13.3333L8.54979 15.0675C9.33083 15.3679 9.5559 15.4623 9.73749 15.5914C9.9197 15.721 10.0789 15.8802 10.2085 16.0624C10.3376 16.244 10.432 16.4691 10.7324 17.2501L12.4666 21.759C12.6151 22.1452 12.9861 22.4 13.3999 22.4C13.8137 22.4 14.1847 22.1452 14.3333 21.759L16.0674 17.2501C16.3678 16.4691 16.4622 16.244 16.5914 16.0624C16.7209 15.8802 16.8801 15.721 17.0623 15.5914C17.2439 15.4623 17.469 15.3679 18.25 15.0675L22.7589 13.3333C23.1451 13.1848 23.3999 12.8138 23.3999 12.4C23.3999 11.9862 23.1451 11.6152 22.7589 11.4667L18.25 9.73248C17.469 9.43208 17.2439 9.33768 17.0623 9.20856C16.8801 9.079 16.7209 8.9198 16.5913 8.73759C16.4622 8.556 16.3678 8.33093 16.0674 7.54988L14.3332 3.04102Z" fill="url(#paint2_linear_10898_5161)"/>
<defs>
<linearGradient id="paint0_linear_10898_5161" x1="12.3999" y1="1.4" x2="12.3999" y2="23.4" gradientUnits="userSpaceOnUse">
<stop stop-color="#50AAF9"/>
<stop offset="1" stop-color="#1972D6"/>
</linearGradient>
<linearGradient id="paint1_linear_10898_5161" x1="12.3999" y1="1.4" x2="12.3999" y2="23.4" gradientUnits="userSpaceOnUse">
<stop stop-color="#50AAF9"/>
<stop offset="1" stop-color="#1972D6"/>
</linearGradient>
<linearGradient id="paint2_linear_10898_5161" x1="12.3999" y1="1.4" x2="12.3999" y2="23.4" gradientUnits="userSpaceOnUse">
<stop stop-color="#50AAF9"/>
<stop offset="1" stop-color="#1972D6"/>
</linearGradient>
</defs>
</svg>
