<svg width="24" height="24" viewBox="0 0 24 24" fill="none" xmlns="http://www.w3.org/2000/svg">
<path d="M0 6.14059C0 5.31216 0.671578 4.64059 1.5 4.64059H3.93028C5.5898 4.64059 7.07048 5.31488 8.33123 6.64473C8.90119 7.24595 8.87588 8.19535 8.27466 8.7653C7.98459 9.04032 7.61339 9.17673 7.24289 9.17673C6.84553 9.17673 6.44902 9.01984 6.15408 8.70873C5.47266 7.98999 4.74525 7.64059 3.93028 7.64059H1.5C0.671578 7.64059 0 6.96901 0 6.14059ZM16.4132 7.64059H18.8787L18.4165 8.10277C17.8307 8.68857 17.8307 9.6383 18.4165 10.2241C18.7094 10.517 19.0933 10.6635 19.4771 10.6635C19.861 10.6635 20.2449 10.517 20.5378 10.2241L23.5606 7.20123C24.1464 6.61543 24.1464 5.6657 23.5606 5.0799L20.5378 2.05702C19.952 1.47123 19.0023 1.47123 18.4165 2.05702C17.8307 2.64282 17.8307 3.59255 18.4165 4.17835L18.8787 4.64059H16.4132C15.2963 4.64059 14.2468 4.95305 13.2937 5.56932C12.406 6.14326 11.6018 6.9871 10.9034 8.07737L6.91406 14.3044C6.02817 15.6872 5.05219 16.3595 3.93028 16.3595H1.5C0.671578 16.3595 0 17.0311 0 17.8595C0 18.6879 0.671578 19.3595 1.5 19.3595H3.93028C5.04717 19.3595 6.0967 19.047 7.04981 18.4307C7.93748 17.8568 8.74172 17.013 9.4402 15.9227L13.4295 9.69559C14.3153 8.31277 15.2913 7.64059 16.4132 7.64059ZM20.5378 13.7759C19.952 13.1901 19.0023 13.1901 18.4165 13.7759C17.8307 14.3617 17.8307 15.3114 18.4165 15.8972L18.8787 16.3594H16.4132C15.5982 16.3594 14.8708 16.01 14.1894 15.2913C13.6194 14.6901 12.67 14.6648 12.0688 15.2347C11.4676 15.8047 11.4423 16.7541 12.0122 17.3553C13.273 18.6851 14.7537 19.3594 16.4132 19.3594H18.8787L18.4164 19.8217C17.8306 20.4075 17.8306 21.3572 18.4164 21.943C18.7094 22.2359 19.0932 22.3824 19.4771 22.3824C19.8609 22.3824 20.2448 22.2359 20.5377 21.943L23.5606 18.9201C24.1464 18.3343 24.1464 17.3846 23.5606 16.7988L20.5378 13.7759Z" fill="white"/>
</svg>
