<?xml version="1.0" encoding="UTF-8"?>
<svg version="1.1" xmlns="http://www.w3.org/2000/svg" width="500" height="500">
<path d="M0 0 C165 0 330 0 500 0 C500 165 500 330 500 500 C335 500 170 500 0 500 C0 335 0 170 0 0 Z " fill="#FEFEFE" transform="translate(0,0)"/>
<path d="M0 0 C0.73886301 -0.00367669 1.47772601 -0.00735338 2.2389788 -0.01114148 C4.71604318 -0.02215873 7.19306557 -0.02601886 9.67015076 -0.02983093 C11.44597506 -0.03609718 13.22179806 -0.04274413 14.99761963 -0.04974365 C20.83173207 -0.07077144 26.66584473 -0.08114648 32.49998474 -0.09111023 C34.51061962 -0.0951586 36.52125436 -0.09927555 38.53188896 -0.10346031 C47.98096036 -0.12251105 57.43002396 -0.13674098 66.87911087 -0.14507228 C77.77372021 -0.15483742 88.66812598 -0.18113858 99.56266361 -0.22157317 C107.99087364 -0.25177653 116.41902547 -0.26654525 124.84728855 -0.26985329 C129.87733459 -0.27219942 134.90716314 -0.28110259 139.93715096 -0.30631447 C144.67404114 -0.32967334 149.41057185 -0.33379709 154.14750481 -0.32355309 C155.87962416 -0.32305947 157.61176169 -0.32932807 159.34382629 -0.34310913 C170.87016438 -0.42963549 182.27500044 -0.10173981 191.12107849 8.31904602 C200.17251928 18.90923175 200.98307367 29.31988707 200.91062927 42.73310852 C200.91006439 44.20225008 200.91038323 45.67139221 200.91151428 47.14053345 C200.91208578 51.10899149 200.9003645 55.0773275 200.88636637 59.04575729 C200.87382502 63.20040511 200.87268583 67.35505602 200.87031555 71.50971985 C200.86411076 79.36828341 200.84771354 87.22679103 200.82761657 95.08533001 C200.80522636 104.03576058 200.7942563 112.98619388 200.7842257 121.93664551 C200.76334639 140.34018568 200.72818995 158.74367384 200.68357849 177.14717102 C201.45772787 177.14348385 202.23187725 177.13979668 203.0294857 177.13599777 C221.89310782 177.04754157 240.75668837 176.98141031 259.62047386 176.93992233 C268.7429844 176.91932418 277.86535622 176.89125628 286.98777771 176.84541321 C294.94174757 176.80546114 302.89561694 176.77971825 310.84968436 176.77081704 C315.05874872 176.76561642 319.26752568 176.75345082 323.47649765 176.72425079 C327.44426544 176.69694911 331.41162946 176.68875553 335.37948227 176.6947403 C336.82983093 176.69364661 338.28019415 176.68578075 339.73046112 176.67034912 C350.17805132 176.56470433 359.43513609 177.52811189 367.49607849 184.77217102 C368.1831488 185.36256165 368.87021912 185.95295227 369.57810974 186.56123352 C377.32604918 196.07725561 377.39924641 205.46929808 377.31468201 217.19795227 C377.3198271 219.01569821 377.32711281 220.83343915 377.33636475 222.65116882 C377.3548118 227.56450408 377.34198254 232.47729368 377.32227445 237.39060593 C377.3058312 242.54555087 377.31470872 247.7004628 377.3197937 252.85542297 C377.32430832 261.51037767 377.30848397 270.1651158 377.28050232 278.82002258 C377.24845337 288.80965595 377.24846829 298.79889883 377.26571709 308.78855991 C377.28161067 318.41973299 377.27483039 328.05076365 377.25778008 337.68193054 C377.25092844 341.77101967 377.2519226 345.85999399 377.25932503 349.94908142 C377.26701676 354.769013 377.25476779 359.58850309 377.22747612 364.40835953 C377.22062142 366.17151708 377.22046284 367.9347161 377.22769165 369.69787216 C377.26555394 380.14020625 376.93299181 389.07290884 370.74607849 397.91670227 C370.06545349 398.59088196 369.38482849 399.26506165 368.68357849 399.95967102 C368.02357849 400.64674133 367.36357849 401.33381165 366.68357849 402.04170227 C356.33004491 409.3080494 346.039074 409.86896206 333.86473083 409.77827454 C332.09595016 409.78342248 330.32717464 409.79071033 328.55841064 409.79995728 C323.78774493 409.81836538 319.01764294 409.80560116 314.24700117 409.78586698 C309.23754265 409.76939632 304.22811746 409.77830479 299.21864319 409.78338623 C290.81103075 409.78789698 282.40364154 409.77209857 273.99607849 409.74409485 C264.2938267 409.71202677 254.59197688 409.71207016 244.88969648 409.72930962 C235.52975732 409.7452039 226.16996468 409.73842382 216.81003189 409.7213726 C212.83816726 409.71452354 208.86642083 409.71551239 204.89455795 409.72291756 C200.21412668 409.73061055 195.53414992 409.71835637 190.85379601 409.69106865 C189.14223898 409.68421604 187.43063925 409.68405309 185.71908379 409.69128418 C173.05230503 409.73861103 163.15799839 408.51297934 153.66014099 399.40107727 C147.16217074 391.9913365 145.68984833 383.72926294 144.68357849 374.14717102 C144.06482849 374.64217102 143.44607849 375.13717102 142.80857849 375.64717102 C140.68357849 377.14717102 140.68357849 377.14717102 138.68357849 377.14717102 C138.68357849 370.21717102 138.68357849 363.28717102 138.68357849 356.14717102 C136.61584167 356.35140686 134.54810486 356.5556427 132.41770935 356.7660675 C65.93836303 362.92414171 65.93836303 362.92414171 44.4516449 346.04804993 C29.91370426 333.01701622 23.81128947 319.3719918 22.52604103 300.23104477 C21.46654568 280.49466793 22.77137952 260.79039525 24.68357849 241.14717102 C17.75357849 241.14717102 10.82357849 241.14717102 3.68357849 241.14717102 C5.33357849 238.50717102 6.98357849 235.86717102 8.68357849 233.14717102 C7.88435974 233.12138977 7.08514099 233.09560852 6.26170349 233.06904602 C-5.84753269 232.44368641 -14.85270779 230.1684821 -24.06251526 222.04951477 C-31.7593225 212.13837477 -32.0352717 202.17497469 -31.94752502 190.16645813 C-31.95267149 188.3682688 -31.95995822 186.57008453 -31.96920776 184.77191162 C-31.9876361 179.91648241 -31.97483808 175.06160618 -31.95511746 170.20620036 C-31.93866112 165.10998503 -31.94755343 160.0138028 -31.95263672 154.91757202 C-31.95714948 146.3627495 -31.94133757 137.80814622 -31.91334534 129.25337219 C-31.88128697 119.38016419 -31.88131589 109.50735124 -31.89856011 99.63411516 C-31.91445386 90.11239633 -31.90767396 80.59082154 -31.89062309 71.06910896 C-31.8837726 67.02746785 -31.8847644 62.9859429 -31.89216805 58.94430351 C-31.89986022 54.18099019 -31.88760944 49.41812354 -31.86031914 44.65488625 C-31.85346528 42.91269125 -31.85330494 41.17045428 -31.86053467 39.4282608 C-31.90267926 27.94449465 -31.37957977 17.59717813 -23.16017151 8.74873352 C-15.94947254 2.48520264 -9.39723809 -0.00251452 0 0 Z " fill="#D9D9DA" transform="translate(77.31642150878906,45.85282897949219)"/>
<path d="M0 0 C0.73886301 -0.00367669 1.47772601 -0.00735338 2.2389788 -0.01114148 C4.71604318 -0.02215873 7.19306557 -0.02601886 9.67015076 -0.02983093 C11.44597506 -0.03609718 13.22179806 -0.04274413 14.99761963 -0.04974365 C20.83173207 -0.07077144 26.66584473 -0.08114648 32.49998474 -0.09111023 C34.51061962 -0.0951586 36.52125436 -0.09927555 38.53188896 -0.10346031 C47.98096036 -0.12251105 57.43002396 -0.13674098 66.87911087 -0.14507228 C77.77372021 -0.15483742 88.66812598 -0.18113858 99.56266361 -0.22157317 C107.99087364 -0.25177653 116.41902547 -0.26654525 124.84728855 -0.26985329 C129.87733459 -0.27219942 134.90716314 -0.28110259 139.93715096 -0.30631447 C144.67404114 -0.32967334 149.41057185 -0.33379709 154.14750481 -0.32355309 C155.87962416 -0.32305947 157.61176169 -0.32932807 159.34382629 -0.34310913 C170.87792021 -0.42969371 182.2489765 -0.09074725 191.11717224 8.30732727 C197.28140433 15.54760985 199.81162728 22.08008223 199.80383301 31.51895142 C199.805895 33.44768852 199.805895 33.44768852 199.80799866 35.41539001 C199.80445996 36.83290124 199.80082516 38.25041222 199.79710388 39.66792297 C199.7968217 41.16617837 199.79698036 42.6644339 199.79754639 44.16268921 C199.79783313 48.2242592 199.79195621 52.28579963 199.78497243 56.34736276 C199.77871849 60.59412247 199.77813348 64.84088287 199.77694702 69.08764648 C199.77383973 77.12691108 199.76563444 85.16616207 199.75559753 93.20542067 C199.74441772 102.35892771 199.73892123 111.51243539 199.7339021 120.66594756 C199.72345134 139.49302976 199.70586353 158.32009929 199.68357849 177.14717102 C198.82192078 177.15651672 197.96026306 177.16586243 197.07249451 177.17549133 C193.83471268 177.21985345 190.59783201 177.2816217 187.36058044 177.35469055 C185.96714631 177.38268473 184.57355974 177.40400508 183.17991638 177.41816711 C171.42215138 177.54473078 163.1473198 179.2039659 154.40623474 187.35420227 C148.45058982 193.55293474 146.48626273 199.84248575 146.26951599 208.29560852 C146.25014984 208.95300018 146.23078369 209.61039185 146.21083069 210.28770447 C146.15155388 212.36573237 146.10486055 214.44381726 146.05857849 216.52217102 C146.02035071 217.94016252 145.98129626 219.35813199 145.94139099 220.77607727 C145.84589678 224.23290563 145.76167661 227.68990085 145.68357849 231.14717102 C136.91276773 231.52012036 128.14473417 231.80323804 119.36768818 231.97616577 C115.29034265 232.05923034 111.21846706 232.17153614 107.14427185 232.35420227 C78.62347686 233.59980535 78.62347686 233.59980535 71.78001404 227.77363586 C68.85879743 224.55524503 66.73771167 221.10404149 64.80256653 217.22633362 C62.92692233 213.74124786 60.38737082 210.80850645 57.87107849 207.77217102 C56.97963675 206.63943821 56.09111776 205.50439195 55.20701599 204.36592102 C51.73643362 199.92995827 48.21309439 195.53631114 44.68357849 191.14717102 C40.46509405 195.19976001 36.75480719 199.55501408 33.05857849 204.08467102 C32.44973816 204.82741272 31.84089783 205.57015442 31.21360779 206.33540344 C21.51686738 217.36173704 21.51686738 217.36173704 13.48435974 229.50263977 C10.29159475 232.41837526 6.20083377 231.7193148 2.05857849 231.64717102 C0.76113708 231.67037415 0.76113708 231.67037415 -0.56251526 231.69404602 C-9.4382417 231.64081828 -16.93930013 228.60239337 -23.32128334 222.3733654 C-32.00382328 212.68530372 -32.17780713 202.29040665 -32.06105042 190.05293274 C-32.0659155 188.25459453 -32.07336308 186.45626175 -32.08317566 184.65794373 C-32.1018727 179.80660474 -32.08324811 174.95608132 -32.0565114 170.10480642 C-32.03375598 165.01127206 -32.04210695 159.91777414 -32.04600525 154.82420349 C-32.04776692 146.27531222 -32.02569662 137.72673942 -31.98878479 129.17793274 C-31.94642861 119.31207962 -31.93943797 109.44669222 -31.95190871 99.58076656 C-31.96331962 90.06383901 -31.95197872 80.54707447 -31.92956161 71.03017044 C-31.92030358 66.99132886 -31.91850709 62.95258752 -31.92273331 58.91373825 C-31.92651607 54.15449728 -31.91016246 49.39572661 -31.87861252 44.63659286 C-31.87016886 42.89601589 -31.86839729 41.15539101 -31.87399292 39.41480255 C-31.90527435 27.93886199 -31.37319445 17.59030414 -23.16017151 8.74873352 C-15.94947254 2.48520264 -9.39723809 -0.00251452 0 0 Z " fill="#3E81F2" transform="translate(77.31642150878906,45.85282897949219)"/>
<path d="M0 0 C4.95 0 9.9 0 15 0 C15 6.93 15 13.86 15 21 C34.14 21 53.28 21 73 21 C73 24.96 73 28.92 73 33 C66.07 33 59.14 33 52 33 C51.34 35.97 50.68 38.94 50 42 C48.88475846 44.66106794 47.76412914 47.14360774 46.4375 49.6875 C45.90914551 50.71496338 45.90914551 50.71496338 45.37011719 51.76318359 C39.66461097 62.65391418 33.12157241 72.31741956 24.89746094 81.47119141 C22.65381698 83.97710809 21.07656971 85.77029086 20 89 C37.23281121 99.8363529 55.32143522 108.53619985 75 114 C73.44298069 118.67105792 70.91552627 122.08705685 68 126 C49.38229113 122.52890174 31.84461327 113.32354659 16.24365234 102.86108398 C15.48648926 102.36036377 14.72932617 101.85964355 13.94921875 101.34375 C13.28237061 100.89193359 12.61552246 100.44011719 11.9284668 99.97460938 C9.76512652 98.69929927 9.76512652 98.69929927 6 99 C3.63708707 100.43242424 1.42982368 101.89883622 -0.8125 103.5 C-11.64420805 110.93084127 -22.60578048 116.65209348 -34.875 121.375 C-35.7427002 121.70902832 -36.61040039 122.04305664 -37.50439453 122.38720703 C-42.94931701 124.41276406 -48.30292392 125.86058478 -54 127 C-58 119.5 -58 119.5 -58 115 C-57.45287354 114.82984375 -56.90574707 114.6596875 -56.34204102 114.484375 C-27.2884639 105.62259574 -27.2884639 105.62259574 -3 88 C-3.66644531 87.37996094 -4.33289063 86.75992188 -5.01953125 86.12109375 C-19.39156448 72.3118814 -31.62625501 55.02930594 -38 36 C-38 35.01 -38 34.02 -38 33 C-44.27 33 -50.54 33 -57 33 C-57 29.37 -57 25.74 -57 22 C-38.19 22 -19.38 22 0 22 C0 14.74 0 7.48 0 0 Z " fill="#F2F3F5" transform="translate(153,98)"/>
<path d="M0 0 C22.11 0 44.22 0 67 0 C67 22.11 67 44.22 67 67 C63 65 63 65 60 63 C60 69.93 60 76.86 60 84 C35.25 84 10.5 84 -15 84 C-15 59.25 -15 34.5 -15 9 C-5.1 8.505 -5.1 8.505 5 8 C3.35 6.02 1.7 4.04 0 2 C0 1.34 0 0.68 0 0 Z " fill="#FEFEFE" transform="translate(156,278)"/>
<path d="M0 0 C4.95 0 9.9 0 15 0 C17.88875244 6.36969712 20.5311848 12.78786028 23.02734375 19.3203125 C23.59976303 20.80991989 23.59976303 20.80991989 24.18374634 22.32962036 C25.43734929 25.59384993 26.68748803 28.85939379 27.9375 32.125 C28.8155181 34.41379673 29.69369471 36.70253265 30.57202148 38.99121094 C33.38553622 46.3258721 36.19349503 53.66265464 39 61 C39.24156326 61.63148453 39.48312653 62.26296906 39.73200989 62.91358948 C45.09951969 76.94529251 50.46154442 90.97908981 55.81640625 105.015625 C56.19681061 106.01240265 56.57721497 107.0091803 56.96914673 108.03616333 C57.6657828 109.86302434 58.36084676 111.69048598 59.0539856 113.51867676 C59.66938092 115.13281151 60.29273228 116.74394299 60.92526245 118.35144043 C62.10445092 121.37986461 63 123.71889437 63 127 C57.39 127 51.78 127 46 127 C44.42890481 122.78405787 42.86083242 118.56723819 41.30029297 114.34741211 C40.7685138 112.91219237 40.2349959 111.47761561 39.69970703 110.04370117 C38.93063773 107.98262399 38.16784904 105.91931608 37.40625 103.85546875 C37.16563843 103.21473923 36.92502686 102.5740097 36.67712402 101.91386414 C35.65102595 99.11647059 35 97.00836132 35 94 C17.18 94.33 -0.64 94.66 -19 95 C-22.96 105.89 -26.92 116.78 -31 128 C-36.61 128 -42.22 128 -48 128 C-47.20079859 123.20479151 -46.11867517 119.26139804 -44.359375 114.81640625 C-43.9479425 113.75549774 -43.9479425 113.75549774 -43.52819824 112.67315674 C-42.92611846 111.12241204 -42.3214331 109.57267706 -41.71447754 108.02383423 C-40.37801617 104.61320207 -39.05405157 101.19776137 -37.72943115 97.78251648 C-37.0026969 95.90883952 -36.27534284 94.03540286 -35.54742432 92.16218567 C-31.1867228 80.9306656 -26.90681916 69.66841011 -22.61959839 58.40869141 C-15.18813422 38.89569562 -7.72052172 19.40074895 0 0 Z " fill="#4182F1" transform="translate(331,275)"/>
<path d="M0 0 C3.08729719 1.5436486 5.05997309 2.72206194 7.6171875 4.87109375 C8.64017944 5.72392944 8.64017944 5.72392944 9.68383789 6.59399414 C10.40692139 7.20235107 11.13000488 7.81070801 11.875 8.4375 C17.21617714 12.88610912 22.57786164 17.2917928 28.0625 21.5625 C29.75630968 22.88870532 31.44928745 24.21596629 33.14208984 25.54345703 C34.48009414 26.5924102 35.81908139 27.64010998 37.15869141 28.68701172 C39.40507214 30.44860385 41.64085652 32.22292473 43.875 34 C44.58406494 34.55244385 45.29312988 35.1048877 46.02368164 35.67407227 C46.67328857 36.19412842 47.32289551 36.71418457 47.9921875 37.25 C48.57339355 37.70890625 49.15459961 38.1678125 49.75341797 38.640625 C51 40 51 40 51 43 C49.04133484 44.75667781 47.10655534 46.31301163 45 47.875 C43.70723196 48.86053613 42.41560908 49.8475758 41.125 50.8359375 C40.44695312 51.3525293 39.76890625 51.86912109 39.0703125 52.40136719 C35.65972577 55.0349193 32.33270065 57.76903132 29 60.5 C22.7196158 65.62754446 16.37760372 70.66922238 9.98828125 75.66015625 C8.04613731 77.18086765 6.12520201 78.72920397 4.23046875 80.30859375 C2 82 2 82 0 82 C0 75.07 0 68.14 0 61 C-2.07297363 61.19899902 -4.14594727 61.39799805 -6.28173828 61.60302734 C-15.88227988 62.47021772 -25.49281382 63.01323098 -35.125 63.375 C-36.41239767 63.4235721 -36.41239767 63.4235721 -37.72580338 63.47312546 C-58.06945157 64.15066383 -75.45334269 64.26339088 -91.2366333 50.05853271 C-99.39861697 41.98071079 -107.07665996 32.86998493 -113 23 C-113 22.67 -113 22.34 -113 22 C-75.71 22 -38.42 22 0 22 C0 14.74 0 7.48 0 0 Z " fill="#3E81F1" transform="translate(216,341)"/>
<path d="M0 0 C3.57399504 3.49072993 6.9106972 7.11083689 10.125 10.9375 C10.59510498 11.49526123 11.06520996 12.05302246 11.54956055 12.62768555 C15.94036299 17.8702497 20.18978489 23.22086717 24.39453125 28.61328125 C24.80570694 29.12023529 25.21688263 29.62718933 25.64051819 30.14950562 C27 32 27 32 28.01570129 34.045578 C29.43870536 36.61028187 30.67759087 38.18396721 33 40 C38.20720919 41.20353658 43.37045198 41.0726929 48.6796875 41 C50.21812996 41.00752379 51.7565589 41.01856239 53.29495239 41.03295898 C57.32977462 41.06132679 61.36300523 41.04214839 65.39776611 41.01287842 C69.52049014 40.99144558 73.64293008 41.01523551 77.765625 41.03515625 C85.84415326 41.06755839 93.92156154 41.04970582 102 41 C102 41.33 102 41.66 102 42 C79.89 42 57.78 42 35 42 C36.98 44.97 38.96 47.94 41 51 C34.07 51 27.14 51 20 51 C20 75.75 20 100.5 20 126 C44.75 126 69.5 126 95 126 C95 126.33 95 126.66 95 127 C57.38 127 19.76 127 -19 127 C-19 101.92 -19 76.84 -19 51 C-25.93 51 -32.86 51 -40 51 C-38.35 48.36 -36.7 45.72 -35 43 C-39.29 42.67 -43.58 42.34 -48 42 C-48 41.67 -48 41.34 -48 41 C-46.45892578 41.13535156 -46.45892578 41.13535156 -44.88671875 41.2734375 C-37.25317016 41.65312409 -37.25317016 41.65312409 -30.37207031 38.83642578 C-27.2241913 35.62067668 -24.84338372 31.84099251 -22.40673828 28.07617188 C-19.93002168 24.42084421 -17.07138403 21.07894581 -14.25 17.6875 C-13.15437446 16.34788592 -12.06056136 15.00678703 -10.96875 13.6640625 C-10.20498047 12.72481934 -10.20498047 12.72481934 -9.42578125 11.76660156 C-6.96222665 8.71415617 -4.55826398 5.61684435 -2.171875 2.50390625 C-1 1 -1 1 0 0 Z " fill="#A3C7F4" transform="translate(121,236)"/>
<path d="M0 0 C20.46 0 40.92 0 62 0 C55.93656999 18.19029003 47.04809991 32.88844008 33 46 C28.31629998 44.58379926 25.5238843 41.9139476 22.3125 38.375 C21.79284668 37.80523437 21.27319336 37.23546875 20.73779297 36.6484375 C13.29949182 28.22789043 0 11.67846441 0 0 Z " fill="#4182F2" transform="translate(129,131)"/>
<path d="M0 0 C2.42435514 2.9550314 3.80199769 5.69526577 5.0847168 9.28759766 C5.46488449 10.34194 5.84505219 11.39628235 6.23674011 12.48257446 C6.63685806 13.61496552 7.03697601 14.74735657 7.44921875 15.9140625 C7.86669876 17.08004974 8.28417877 18.24603699 8.71430969 19.44735718 C9.81921063 22.53874092 10.91772356 25.63230198 12.01367188 28.72686768 C13.13311386 31.8802668 14.26383334 35.02960679 15.39257812 38.1796875 C16.24542812 40.57008552 17.09766294 42.96070313 17.94921875 45.3515625 C18.35540939 46.48800201 18.76160004 47.62444153 19.18009949 48.7953186 C19.5508107 49.84335663 19.92152191 50.89139465 20.3034668 51.97119141 C20.63195114 52.89622467 20.96043549 53.82125793 21.2988739 54.77432251 C22 57 22 57 22 59 C8.14 59 -5.72 59 -20 59 C-19.30732726 54.15129081 -18.76552214 50.82846725 -17.14233398 46.43188477 C-16.76201523 45.39133438 -16.38169647 44.350784 -15.98985291 43.27870178 C-15.57941238 42.17739426 -15.16897186 41.07608673 -14.74609375 39.94140625 C-14.32578384 38.79711655 -13.90547394 37.65282684 -13.47242737 36.47386169 C-12.13390598 32.83432493 -10.78585001 29.1984055 -9.4375 25.5625 C-8.52606063 23.08942557 -7.61524621 20.61612071 -6.70507812 18.14257812 C-4.47728607 12.09236364 -2.24166393 6.04508758 0 0 Z " fill="#D7D8DA" transform="translate(338,296)"/>
</svg>
